<?xml version="1.0" encoding="UTF-8" standalone="no"?><!DOCTYPE svg PUBLIC "-//W3C//DTD SVG 1.1//EN" "http://www.w3.org/Graphics/SVG/1.1/DTD/svg11.dtd"><svg width="100%" height="100%" viewBox="0 0 350 150" version="1.1" xmlns="http://www.w3.org/2000/svg" xmlns:xlink="http://www.w3.org/1999/xlink" xml:space="preserve" xmlns:serif="http://www.serif.com/" style="fill-rule:evenodd;clip-rule:evenodd;stroke-linejoin:round;stroke-miterlimit:2;"><rect id="Artboard1" x="0" y="0" width="350" height="150" style="fill:none;"/><g><path d="M71.176,111.432l0,-7.392l-31.2,0l0,-62.016l-9.888,-0l0,69.408l41.088,0Z" style="fill-rule:nonzero;"/><path d="M122.632,111.432l0,-50.88l-9.216,0l0,32.928c-3.168,4.608 -6.048,7.584 -8.64,9.024c-2.592,1.44 -5.088,2.112 -7.296,2.112c-2.688,0 -5.088,-1.248 -6.336,-3.456c-0.576,-1.152 -0.864,-3.552 -0.864,-7.104l0,-33.504l-9.312,0l0,36.576c0,9.696 6.048,15.456 14.592,15.456c6.624,0 13.152,-3.84 17.856,-10.752l0,9.6l9.216,0Z" style="fill-rule:nonzero;"/><path d="M176.488,101.928c-4.416,2.208 -8.736,3.264 -12.96,3.264c-4.704,0 -8.544,-1.728 -11.52,-5.28c-2.976,-3.552 -4.416,-8.256 -4.416,-13.92c0,-5.28 1.344,-9.888 3.936,-13.728c2.592,-3.84 6.528,-5.76 11.712,-5.76c3.264,0 7.488,0.768 12.672,2.304l0,-7.776c-4.896,-1.056 -9.312,-1.632 -13.248,-1.632c-8.736,0 -15.168,2.496 -19.296,7.584c-4.128,4.992 -6.24,11.232 -6.24,18.72c0,10.08 3.84,18.336 11.424,23.232c3.744,2.4 7.968,3.648 12.48,3.648c4.32,0 9.504,-0.864 15.456,-2.688l0,-7.968Z" style="fill-rule:nonzero;"/><path d="M199.528,111.432l0,-50.88l-9.216,0l0,50.88l9.216,0Zm0,-60.096l0,-9.312l-9.216,0l0,9.312l9.216,0Z" style="fill-rule:nonzero;"/><path d="M260.008,111.432l0,-74.016l-9.216,0l0,28.896c-4.896,-5.568 -8.64,-6.528 -15.072,-6.912c-6.72,0 -12,2.688 -15.936,8.064c-3.84,5.28 -5.76,12 -5.76,20.064c0,7.488 1.728,13.536 5.184,18.144c3.456,4.608 8.352,6.912 14.592,6.912c7.584,0 13.152,-3.552 16.992,-10.752l0,9.6l9.216,0Zm-9.216,-15.36c-4.992,5.664 -9.984,8.448 -15.072,8.448c-8.064,0 -11.808,-6.816 -11.808,-17.856c0,-12 4.32,-20.352 13.248,-20.352c2.208,0 4.224,0.384 6.048,1.056c1.824,0.672 4.416,2.496 7.584,5.28l0,23.424Z" style="fill-rule:nonzero;"/><path d="M304.744,105c1.248,5.76 4.8,7.584 8.256,7.584c2.496,0 4.8,-0.48 6.912,-1.44l-0.672,-5.184c-0.768,0.096 -1.344,0.192 -1.824,0.192c-1.92,0 -3.456,-0.864 -4.224,-2.688c-0.384,-0.864 -0.576,-2.592 -0.576,-5.184l0,-23.04c0,-9.12 -3.264,-12.48 -8.352,-14.4c-2.496,-0.96 -5.28,-1.44 -8.256,-1.44c-5.472,0 -11.328,1.248 -17.568,3.84l0,7.584c5.664,-2.976 10.944,-4.512 15.648,-4.512c6.336,0.576 9.216,1.728 9.216,8.928l0,6.144l-2.112,0c-9.504,0 -16.416,1.632 -20.736,4.896c-4.32,3.264 -6.432,7.392 -6.432,12.384c0,4.512 1.536,7.968 4.608,10.368c3.168,2.4 6.528,3.552 10.08,3.552c5.088,-0 10.56,-2.592 16.032,-7.584Zm-1.44,-5.088c-4.128,3.456 -8.064,5.184 -12,5.184c-4.224,-0 -8.064,-3.456 -8.064,-7.968c0,-3.168 1.632,-5.76 4.896,-7.584c3.36,-1.92 7.392,-2.88 12.288,-2.88l2.88,0.096l0,13.152Z" style="fill-rule:nonzero;"/></g></svg>