<?xml version="1.0" encoding="UTF-8" standalone="no"?><!DOCTYPE svg PUBLIC "-//W3C//DTD SVG 1.1//EN" "http://www.w3.org/Graphics/SVG/1.1/DTD/svg11.dtd"><svg width="100%" height="100%" viewBox="0 0 350 150" version="1.1" xmlns="http://www.w3.org/2000/svg" xmlns:xlink="http://www.w3.org/1999/xlink" xml:space="preserve" xmlns:serif="http://www.serif.com/" style="fill-rule:evenodd;clip-rule:evenodd;stroke-linejoin:round;stroke-miterlimit:2;"><rect id="Artboard1" x="0" y="0" width="350" height="150" style="fill:none;"/><g><path d="M73.336,97.512l-4.896,0l-0.096,0.96c-0.192,4.704 -0.672,7.296 -1.536,7.968c-0.768,0.672 -3.936,0.96 -9.504,0.96l-7.104,0c-4.128,0 -6.528,-0.288 -7.2,-0.96c-0.576,-0.672 -0.864,-2.976 -0.864,-7.104l-0,-45.12c-0,-4.32 0.288,-6.816 0.96,-7.584c0.672,-0.864 2.976,-1.344 6.816,-1.632l0.864,-0.096l-0,-2.88l-27.168,0l-0,2.88l0.864,0.096c3.744,0.288 6.048,0.768 6.72,1.632c0.672,0.768 1.056,3.264 1.056,7.584l-0,45.12c-0,4.128 -0.384,6.624 -1.056,7.488c-0.672,0.864 -2.976,1.344 -6.72,1.632l-0.864,0.096l-0,2.88l49.728,0l-0,-13.92Z" style="fill-rule:nonzero;"/><path d="M134.104,111.432l-0,-2.88l-0.96,-0.096c-3.936,-0.288 -6.24,-0.672 -6.72,-1.248c-0.48,-0.672 -0.864,-3.264 -1.056,-7.872l-0,-38.784l-17.952,0l-0,2.88l0.864,0c4.032,0.288 6.24,0.768 6.72,1.344c0.48,0.576 0.864,3.168 1.152,7.872l-0,26.112c-4.704,5.28 -9.792,7.872 -14.88,7.872c-5.472,0 -8.256,-3.936 -8.256,-11.712l-0,-34.368l-17.952,0l-0,2.88l0.864,0c3.744,0.288 6.048,0.864 6.72,1.728c0.672,0.768 1.056,3.264 1.056,7.488l-0,23.712c-0,5.088 1.248,9.024 3.744,11.904c2.496,2.88 5.952,4.32 10.368,4.32c7.584,0 13.632,-3.552 18.336,-10.752l-0,9.6l17.952,0Z" style="fill-rule:nonzero;"/><path d="M179.704,105.672c-3.552,1.536 -7.584,2.304 -12.192,2.304c-10.752,0 -17.472,-8.736 -17.472,-22.848c0,-13.92 5.664,-22.656 14.592,-22.656c6.144,0 9.216,3.552 9.216,10.56l0.096,0.768l5.76,0l0,-12.096c-6.144,-1.536 -11.136,-2.304 -14.88,-2.304c-7.392,0 -13.344,2.4 -17.856,7.2c-4.416,4.8 -6.624,11.136 -6.624,19.104c-0,7.968 2.304,14.496 6.912,19.488c4.704,4.896 10.752,7.392 18.144,7.392c4.704,0 9.408,-0.96 14.304,-2.88l0,-4.032Z" style="fill-rule:nonzero;"/><path d="M186.328,60.552l0,2.88l0.864,0c3.744,0.288 6.048,0.864 6.72,1.728c0.672,0.768 1.056,3.264 1.056,7.488l0,26.688c0,4.128 -0.384,6.624 -1.056,7.488c-0.672,0.864 -2.976,1.344 -6.72,1.632l-0.864,0.096l0,2.88l26.592,0l0,-2.88l-0.864,-0.096c-3.84,-0.288 -6.144,-0.768 -6.816,-1.536c-0.672,-0.864 -0.96,-3.36 -0.96,-7.584l0,-38.784l-17.952,0Zm17.952,-9.216l0,-9.312l-9.312,0l0,9.312l9.312,0Z" style="fill-rule:nonzero;"/><path d="M273.976,111.432l0,-2.88l-0.96,-0.096c-3.84,-0.288 -6.144,-0.768 -6.816,-1.536c-0.672,-0.864 -0.96,-3.36 -0.96,-7.584l-0,-61.92l-17.952,0l-0,2.88l0.864,0.096c3.936,0.288 6.144,0.768 6.816,1.632c0.672,0.768 1.056,3.264 1.056,7.488l-0,16.8c-4.32,-4.608 -9.312,-6.912 -15.36,-6.912c-6.432,0 -11.616,2.592 -15.552,7.68c-3.936,5.088 -5.856,11.904 -5.856,20.352c0,7.68 1.728,13.824 5.088,18.336c3.456,4.512 8.064,6.816 13.728,6.816c7.392,0 13.344,-3.552 17.952,-10.752l-0,9.6l17.952,0Zm-17.952,-12.768c-4.128,5.28 -8.832,7.968 -14.496,7.968c-8.352,0 -12.48,-7.2 -12.48,-21.696c-0,-13.536 4.32,-20.352 12.864,-20.352c4.608,0 9.216,1.824 14.112,5.376l-0,28.704Z" style="fill-rule:nonzero;"/><path d="M311.8,104.424c1.248,5.472 4.128,8.16 8.64,8.16c1.824,0 3.744,-0.384 5.952,-1.152l-0.288,-3.456c-1.056,0.288 -1.824,0.384 -2.4,0.384c-3.552,0 -4.8,-2.88 -4.8,-11.04l0,-22.656c0,-10.176 -5.568,-15.264 -16.608,-15.264c-5.568,0 -11.616,1.44 -18.048,4.224l0,9.408l6.24,0l0.096,-0.96c0.288,-3.264 1.152,-5.472 2.4,-6.528c2.208,-1.728 4.704,-2.592 7.584,-2.592c6.048,0 9.12,4.032 9.12,12.096l0,6.336l-1.92,0c-10.272,0 -17.472,1.728 -21.792,5.088c-3.744,2.976 -5.568,6.912 -5.568,11.712c0,4.128 1.44,7.584 4.32,10.368c2.88,2.688 6.432,4.032 10.752,4.032c5.376,0 10.848,-2.688 16.32,-8.16Zm-2.112,-0.96c-3.648,2.4 -6.816,3.648 -9.504,3.648c-5.76,0 -9.984,-4.32 -9.984,-10.176c0,-7.968 6.528,-12.672 17.376,-12.672l2.112,0l0,19.2Z" style="fill-rule:nonzero;"/></g></svg>